<?xml version="1.0" encoding="utf-8"?>
<!-- Generator: Adobe Illustrator 25.0.1, SVG Export Plug-In . SVG Version: 6.00 Build 0)  -->
<svg version="1.1" id="Layer_1" xmlns="http://www.w3.org/2000/svg" xmlns:xlink="http://www.w3.org/1999/xlink" x="0px" y="0px"
	 viewBox="0 0 64 64" style="enable-background:new 0 0 64 64;" xml:space="preserve">
<style type="text/css">
	.st0{fill:#CFCFCF;}
</style>
<g>
	<path class="st0" d="M64,32h-8v20c0,2.2-1.8,4-4,4H12c-2.2,0-4-1.8-4-4V12c0-2.2,1.8-4,4-4h20V0H12C5.4,0,0,5.4,0,12v40
		c0,6.6,5.4,12,12,12h40c6.6,0,12-5.4,12-12V32z"/>
	<path class="st0" d="M64,4c0-2.2-1.8-4-4-4H40v8h10.3l-24,24l5.7,5.7l24-24V24h8V4z"/>
</g>
</svg>
