<?xml version="1.0" encoding="utf-8"?>
<!-- Generator: Adobe Illustrator 19.0.0, SVG Export Plug-In . SVG Version: 6.00 Build 0)  -->
<svg version="1.1" id="Layer_1" xmlns="http://www.w3.org/2000/svg" xmlns:xlink="http://www.w3.org/1999/xlink" x="0px" y="0px"
	 viewBox="0 0 48.9 42" style="enable-background:new 0 0 48.9 42;" xml:space="preserve">
<style type="text/css">
	.st0{fill:#CFCFCF;}
</style>
<g id="XMLID_5_">
	<path id="XMLID_2_" class="st0" d="M13.2,32.2c-4.1-4.1-5.4-9.7-4.3-14.9l4.4,1.4L10.1,6L0.1,14.3l4.4,1.4
		c-1.7,6.8,0.1,14.3,5.4,19.7c6.2,6.2,15.5,7.7,23.1,4.2L31.8,35C25.8,38.2,18.2,37.2,13.2,32.2z"/>
	<path id="XMLID_1_" class="st0" d="M44.5,26c1.7-6.8-0.1-14.3-5.4-19.7c-6.2-6.2-15.4-7.6-23-4.3l1.1,4.6c6-3,13.6-2.1,18.5,2.9
		c4.1,4.1,5.4,9.7,4.3,14.9l-4.4-1.4l3.1,12.7l10.1-8.4L44.5,26z"/>
</g>
</svg>
